<mxfile host="app.diagrams.net" modified="2024-04-03T18:11:30.334Z" agent="Mozilla/5.0 (Windows NT 10.0; Win64; x64) AppleWebKit/537.36 (KHTML, like Gecko) Chrome/123.0.0.0 Safari/537.36" version="24.2.0" etag="wk83m7910xloBSzMzTMX" type="device">
  <diagram id="AMUzaHX_iaoKzbf4lztp" name="Página-1">
    <mxGraphModel dx="1947" dy="529" grid="1" gridSize="10" guides="1" tooltips="1" connect="1" arrows="1" fold="1" page="1" pageScale="1" pageWidth="827" pageHeight="1169" math="0" shadow="0">
      <root>
        <mxCell id="0" />
        <mxCell id="1" parent="0" />
        <mxCell id="9BsQTcr4kQMhx-35-dis-1" value="campeonato" style="whiteSpace=wrap;html=1;align=center;" vertex="1" parent="1">
          <mxGeometry x="610" y="470" width="100" height="40" as="geometry" />
        </mxCell>
        <mxCell id="9BsQTcr4kQMhx-35-dis-16" style="edgeStyle=orthogonalEdgeStyle;rounded=0;orthogonalLoop=1;jettySize=auto;html=1;" edge="1" parent="1" source="9BsQTcr4kQMhx-35-dis-2" target="9BsQTcr4kQMhx-35-dis-14">
          <mxGeometry relative="1" as="geometry" />
        </mxCell>
        <mxCell id="9BsQTcr4kQMhx-35-dis-2" value="modalidade" style="whiteSpace=wrap;html=1;align=center;" vertex="1" parent="1">
          <mxGeometry x="610" y="250" width="100" height="40" as="geometry" />
        </mxCell>
        <mxCell id="9BsQTcr4kQMhx-35-dis-3" value="atleta" style="whiteSpace=wrap;html=1;align=center;" vertex="1" parent="1">
          <mxGeometry x="110" y="250" width="100" height="40" as="geometry" />
        </mxCell>
        <mxCell id="9BsQTcr4kQMhx-35-dis-9" style="edgeStyle=orthogonalEdgeStyle;rounded=0;orthogonalLoop=1;jettySize=auto;html=1;entryX=0.5;entryY=0;entryDx=0;entryDy=0;" edge="1" parent="1" source="9BsQTcr4kQMhx-35-dis-4" target="9BsQTcr4kQMhx-35-dis-3">
          <mxGeometry relative="1" as="geometry" />
        </mxCell>
        <mxCell id="9BsQTcr4kQMhx-35-dis-4" value="&lt;span style=&quot;border-bottom: 1px dotted&quot;&gt;&lt;u&gt;inscrição&lt;/u&gt;&lt;/span&gt;" style="ellipse;whiteSpace=wrap;html=1;align=center;" vertex="1" parent="1">
          <mxGeometry x="40" y="140" width="100" height="40" as="geometry" />
        </mxCell>
        <mxCell id="9BsQTcr4kQMhx-35-dis-10" style="edgeStyle=orthogonalEdgeStyle;rounded=0;orthogonalLoop=1;jettySize=auto;html=1;entryX=0.25;entryY=0;entryDx=0;entryDy=0;" edge="1" parent="1" source="9BsQTcr4kQMhx-35-dis-5" target="9BsQTcr4kQMhx-35-dis-3">
          <mxGeometry relative="1" as="geometry" />
        </mxCell>
        <mxCell id="9BsQTcr4kQMhx-35-dis-5" value="nome" style="ellipse;whiteSpace=wrap;html=1;align=center;" vertex="1" parent="1">
          <mxGeometry x="-20" y="210" width="100" height="40" as="geometry" />
        </mxCell>
        <mxCell id="9BsQTcr4kQMhx-35-dis-11" style="edgeStyle=orthogonalEdgeStyle;rounded=0;orthogonalLoop=1;jettySize=auto;html=1;entryX=0;entryY=0.5;entryDx=0;entryDy=0;" edge="1" parent="1" source="9BsQTcr4kQMhx-35-dis-6" target="9BsQTcr4kQMhx-35-dis-3">
          <mxGeometry relative="1" as="geometry" />
        </mxCell>
        <mxCell id="9BsQTcr4kQMhx-35-dis-6" value="cpf" style="ellipse;whiteSpace=wrap;html=1;align=center;" vertex="1" parent="1">
          <mxGeometry x="-20" y="280" width="100" height="40" as="geometry" />
        </mxCell>
        <mxCell id="9BsQTcr4kQMhx-35-dis-12" style="edgeStyle=orthogonalEdgeStyle;rounded=0;orthogonalLoop=1;jettySize=auto;html=1;exitX=1;exitY=0;exitDx=0;exitDy=0;entryX=0.25;entryY=1;entryDx=0;entryDy=0;" edge="1" parent="1" source="9BsQTcr4kQMhx-35-dis-7" target="9BsQTcr4kQMhx-35-dis-3">
          <mxGeometry relative="1" as="geometry" />
        </mxCell>
        <mxCell id="9BsQTcr4kQMhx-35-dis-7" value="altura" style="ellipse;whiteSpace=wrap;html=1;align=center;" vertex="1" parent="1">
          <mxGeometry x="30" y="350" width="100" height="40" as="geometry" />
        </mxCell>
        <mxCell id="9BsQTcr4kQMhx-35-dis-13" style="edgeStyle=orthogonalEdgeStyle;rounded=0;orthogonalLoop=1;jettySize=auto;html=1;entryX=0.5;entryY=1;entryDx=0;entryDy=0;" edge="1" parent="1" source="9BsQTcr4kQMhx-35-dis-8" target="9BsQTcr4kQMhx-35-dis-3">
          <mxGeometry relative="1" as="geometry" />
        </mxCell>
        <mxCell id="9BsQTcr4kQMhx-35-dis-8" value="peso" style="ellipse;whiteSpace=wrap;html=1;align=center;" vertex="1" parent="1">
          <mxGeometry x="140" y="350" width="100" height="40" as="geometry" />
        </mxCell>
        <mxCell id="9BsQTcr4kQMhx-35-dis-17" style="edgeStyle=orthogonalEdgeStyle;rounded=0;orthogonalLoop=1;jettySize=auto;html=1;" edge="1" parent="1" source="9BsQTcr4kQMhx-35-dis-14" target="9BsQTcr4kQMhx-35-dis-1">
          <mxGeometry relative="1" as="geometry" />
        </mxCell>
        <mxCell id="9BsQTcr4kQMhx-35-dis-14" value="Relationship" style="shape=rhombus;double=1;perimeter=rhombusPerimeter;whiteSpace=wrap;html=1;align=center;" vertex="1" parent="1">
          <mxGeometry x="600" y="340" width="120" height="60" as="geometry" />
        </mxCell>
        <mxCell id="9BsQTcr4kQMhx-35-dis-19" style="edgeStyle=orthogonalEdgeStyle;rounded=0;orthogonalLoop=1;jettySize=auto;html=1;entryX=0;entryY=0.5;entryDx=0;entryDy=0;" edge="1" parent="1" source="9BsQTcr4kQMhx-35-dis-15" target="9BsQTcr4kQMhx-35-dis-2">
          <mxGeometry relative="1" as="geometry" />
        </mxCell>
        <mxCell id="9BsQTcr4kQMhx-35-dis-15" value="Relationship" style="shape=rhombus;double=1;perimeter=rhombusPerimeter;whiteSpace=wrap;html=1;align=center;" vertex="1" parent="1">
          <mxGeometry x="320" y="240" width="120" height="60" as="geometry" />
        </mxCell>
        <mxCell id="9BsQTcr4kQMhx-35-dis-18" style="edgeStyle=orthogonalEdgeStyle;rounded=0;orthogonalLoop=1;jettySize=auto;html=1;entryX=0.108;entryY=0.417;entryDx=0;entryDy=0;entryPerimeter=0;" edge="1" parent="1" source="9BsQTcr4kQMhx-35-dis-3" target="9BsQTcr4kQMhx-35-dis-15">
          <mxGeometry relative="1" as="geometry" />
        </mxCell>
        <mxCell id="9BsQTcr4kQMhx-35-dis-25" style="edgeStyle=orthogonalEdgeStyle;rounded=0;orthogonalLoop=1;jettySize=auto;html=1;entryX=1;entryY=0.5;entryDx=0;entryDy=0;" edge="1" parent="1" source="9BsQTcr4kQMhx-35-dis-20" target="9BsQTcr4kQMhx-35-dis-2">
          <mxGeometry relative="1" as="geometry">
            <Array as="points">
              <mxPoint x="770" y="270" />
            </Array>
          </mxGeometry>
        </mxCell>
        <mxCell id="9BsQTcr4kQMhx-35-dis-20" value="inscritos" style="ellipse;whiteSpace=wrap;html=1;align=center;" vertex="1" parent="1">
          <mxGeometry x="727" y="150" width="100" height="40" as="geometry" />
        </mxCell>
        <mxCell id="9BsQTcr4kQMhx-35-dis-21" value="nome" style="ellipse;whiteSpace=wrap;html=1;align=center;" vertex="1" parent="1">
          <mxGeometry x="620" y="150" width="100" height="40" as="geometry" />
        </mxCell>
        <mxCell id="9BsQTcr4kQMhx-35-dis-23" style="edgeStyle=orthogonalEdgeStyle;rounded=0;orthogonalLoop=1;jettySize=auto;html=1;entryX=0.25;entryY=0;entryDx=0;entryDy=0;" edge="1" parent="1" source="9BsQTcr4kQMhx-35-dis-22" target="9BsQTcr4kQMhx-35-dis-2">
          <mxGeometry relative="1" as="geometry" />
        </mxCell>
        <mxCell id="9BsQTcr4kQMhx-35-dis-22" value="&lt;u&gt;codigo&lt;/u&gt;" style="ellipse;whiteSpace=wrap;html=1;align=center;" vertex="1" parent="1">
          <mxGeometry x="510" y="150" width="100" height="40" as="geometry" />
        </mxCell>
        <mxCell id="9BsQTcr4kQMhx-35-dis-24" style="edgeStyle=orthogonalEdgeStyle;rounded=0;orthogonalLoop=1;jettySize=auto;html=1;entryX=0.65;entryY=-0.075;entryDx=0;entryDy=0;entryPerimeter=0;" edge="1" parent="1" source="9BsQTcr4kQMhx-35-dis-21" target="9BsQTcr4kQMhx-35-dis-2">
          <mxGeometry relative="1" as="geometry" />
        </mxCell>
        <mxCell id="9BsQTcr4kQMhx-35-dis-31" style="edgeStyle=orthogonalEdgeStyle;rounded=0;orthogonalLoop=1;jettySize=auto;html=1;entryX=0;entryY=0.25;entryDx=0;entryDy=0;" edge="1" parent="1" source="9BsQTcr4kQMhx-35-dis-26" target="9BsQTcr4kQMhx-35-dis-1">
          <mxGeometry relative="1" as="geometry" />
        </mxCell>
        <mxCell id="9BsQTcr4kQMhx-35-dis-26" value="local" style="ellipse;whiteSpace=wrap;html=1;align=center;" vertex="1" parent="1">
          <mxGeometry x="440" y="470" width="100" height="40" as="geometry" />
        </mxCell>
        <mxCell id="9BsQTcr4kQMhx-35-dis-30" style="edgeStyle=orthogonalEdgeStyle;rounded=0;orthogonalLoop=1;jettySize=auto;html=1;entryX=0.5;entryY=1;entryDx=0;entryDy=0;" edge="1" parent="1" source="9BsQTcr4kQMhx-35-dis-27" target="9BsQTcr4kQMhx-35-dis-1">
          <mxGeometry relative="1" as="geometry" />
        </mxCell>
        <mxCell id="9BsQTcr4kQMhx-35-dis-27" value="nome" style="ellipse;whiteSpace=wrap;html=1;align=center;" vertex="1" parent="1">
          <mxGeometry x="660" y="550" width="100" height="40" as="geometry" />
        </mxCell>
        <mxCell id="9BsQTcr4kQMhx-35-dis-29" style="edgeStyle=orthogonalEdgeStyle;rounded=0;orthogonalLoop=1;jettySize=auto;html=1;entryX=0;entryY=0.5;entryDx=0;entryDy=0;" edge="1" parent="1" source="9BsQTcr4kQMhx-35-dis-28" target="9BsQTcr4kQMhx-35-dis-1">
          <mxGeometry relative="1" as="geometry" />
        </mxCell>
        <mxCell id="9BsQTcr4kQMhx-35-dis-28" value="codigo" style="ellipse;whiteSpace=wrap;html=1;align=center;" vertex="1" parent="1">
          <mxGeometry x="550" y="550" width="100" height="40" as="geometry" />
        </mxCell>
        <mxCell id="9BsQTcr4kQMhx-35-dis-33" style="edgeStyle=orthogonalEdgeStyle;rounded=0;orthogonalLoop=1;jettySize=auto;html=1;" edge="1" parent="1" source="9BsQTcr4kQMhx-35-dis-32" target="9BsQTcr4kQMhx-35-dis-1">
          <mxGeometry relative="1" as="geometry" />
        </mxCell>
        <mxCell id="9BsQTcr4kQMhx-35-dis-32" value="horario" style="ellipse;whiteSpace=wrap;html=1;align=center;" vertex="1" parent="1">
          <mxGeometry x="740" y="470" width="100" height="40" as="geometry" />
        </mxCell>
      </root>
    </mxGraphModel>
  </diagram>
</mxfile>
